<svg xmlns="http://www.w3.org/2000/svg" xmlns:xlink="http://www.w3.org/1999/xlink" viewBox="0 0 40 40" version="1.1">
<g id="surface1">
<path style=" fill:#DFF0FE;" d="M 5.078125 38.5 C 3.75 38.5 2.574219 37.804688 1.941406 36.636719 C 1.304688 35.46875 1.359375 34.105469 2.078125 32.988281 L 14.5 18.382813 L 14.5 4.5 L 14 4.5 C 13.171875 4.5 12.5 3.828125 12.5 3 C 12.5 2.171875 13.171875 1.5 14 1.5 L 26 1.5 C 26.828125 1.5 27.5 2.171875 27.5 3 C 27.5 3.828125 26.828125 4.5 26 4.5 L 25.5 4.5 L 25.5 18.382813 L 37.960938 33.039063 C 38.640625 34.105469 38.695313 35.46875 38.058594 36.636719 C 37.425781 37.804688 36.25 38.5 34.921875 38.5 Z "></path>
<path style=" fill:#4788C7;" d="M 26 2 C 26.550781 2 27 2.449219 27 3 C 27 3.550781 26.550781 4 26 4 L 25 4 L 25 18.566406 L 25.238281 18.847656 L 37.53125 33.3125 C 38.121094 34.261719 38.15625 35.410156 37.621094 36.398438 C 37.074219 37.402344 36.066406 38 34.921875 38 L 5.078125 38 C 3.933594 38 2.925781 37.402344 2.378906 36.394531 C 1.84375 35.410156 1.878906 34.261719 2.46875 33.3125 L 14.761719 18.84375 L 15 18.566406 L 15 4 L 14 4 C 13.449219 4 13 3.550781 13 3 C 13 2.449219 13.449219 2 14 2 L 26 2 M 26 1 L 14 1 C 12.898438 1 12 1.898438 12 3 C 12 4.101563 12.898438 5 14 5 L 14 18.199219 L 1.660156 32.71875 C -0.09375 35.425781 1.851563 39 5.078125 39 L 34.921875 39 C 38.148438 39 40.09375 35.425781 38.339844 32.71875 L 26 18.199219 L 26 5 C 27.101563 5 28 4.101563 28 3 C 28 1.898438 27.101563 1 26 1 Z "></path>
<path style=" fill:#4788C7;" d="M 19 11 C 19 11.550781 18.550781 12 18 12 C 17.449219 12 17 11.550781 17 11 C 17 10.449219 17.449219 10 18 10 C 18.550781 10 19 10.449219 19 11 Z "></path>
<path style=" fill:#4788C7;" d="M 23 19 C 23 20.105469 22.105469 21 21 21 C 19.894531 21 19 20.105469 19 19 C 19 17.894531 19.894531 17 21 17 C 22.105469 17 23 17.894531 23 19 Z "></path>
<path style=" fill:#98CCFD;" d="M 5.078125 38.5 C 3.75 38.5 2.574219 37.804688 1.941406 36.636719 C 1.304688 35.46875 1.359375 34.105469 2.078125 32.988281 L 9.300781 24.5 L 30.699219 24.5 L 37.960938 33.039063 C 38.640625 34.105469 38.695313 35.46875 38.058594 36.636719 C 37.425781 37.804688 36.25 38.5 34.921875 38.5 Z "></path>
<path style=" fill:#4788C7;" d="M 30.46875 25 L 37.53125 33.3125 C 38.121094 34.261719 38.15625 35.410156 37.621094 36.394531 C 37.074219 37.402344 36.066406 38 34.921875 38 L 5.078125 38 C 3.933594 38 2.925781 37.402344 2.378906 36.394531 C 1.84375 35.410156 1.878906 34.261719 2.46875 33.3125 L 9.53125 25 L 30.46875 25 M 30.933594 24 L 9.066406 24 L 1.660156 32.71875 C -0.09375 35.425781 1.851563 39 5.078125 39 L 34.921875 39 C 38.148438 39 40.09375 35.425781 38.339844 32.71875 Z "></path>
<path style=" fill:#4788C7;" d="M 26 33.5 C 26 34.328125 25.328125 35 24.5 35 C 23.671875 35 23 34.328125 23 33.5 C 23 32.671875 23.671875 32 24.5 32 C 25.328125 32 26 32.671875 26 33.5 Z "></path>
<path style=" fill:#4788C7;" d="M 18 30.5 C 18 31.878906 16.878906 33 15.5 33 C 14.121094 33 13 31.878906 13 30.5 C 13 29.121094 14.121094 28 15.5 28 C 16.878906 28 18 29.121094 18 30.5 Z "></path>
</g>
</svg>